<?xml version="1.0" encoding="utf-8"?>
<svg xmlns="http://www.w3.org/2000/svg" xmlns:xlink="http://www.w3.org/1999/xlink" width="256" height="256">
  <path fill="#E3D17E" transform="translate(58 4.20549)" d="M0 -2.98023e-08C3.55614 15.562 3.55614 32.0127 -10.4931 42.8447C-24.5423 53.6767 -42.2408 53.6767 -52.8649 46.3442C-49.5546 63.6759 -18.6404 82.3555 6.15299 60.8149C30.9463 39.2743 12.8376 5.91125 0 -2.98023e-08Z"></path>
  <path fill="#E8C230" transform="translate(67.5 28)" d="M0 -4C2.20914 -4 4 -2.20914 4 0C4 2.20914 2.20914 4 0 4C-2.20914 4 -4 2.20914 -4 0C-4 -2.20914 -2.20914 -4 0 -4Z"></path>
  <path fill="#E8C230" transform="translate(33 62.5)" d="M0 -4C2.20914 -4 4 -2.20914 4 0C4 2.20914 2.20914 4 0 4C-2.20914 4 -4 2.20914 -4 0C-4 -2.20914 -2.20914 -4 0 -4Z"></path>
  <path fill="#E8C230" transform="translate(68.5 42)" d="M0 -2.5C1.38071 -2.5 2.5 -1.38071 2.5 0C2.5 1.38071 1.38071 2.5 0 2.5C-1.38071 2.5 -2.5 1.38071 -2.5 0C-2.5 -1.38071 -1.38071 -2.5 0 -2.5Z"></path>
  <path fill="#E8C230" transform="translate(55 53.5)" d="M0 -7.5C4.14214 -7.5 7.5 -4.14214 7.5 0C7.5 4.14214 4.14214 7.5 0 7.5C-4.14214 7.5 -7.5 4.14214 -7.5 0C-7.5 -4.14214 -4.14214 -7.5 0 -7.5Z"></path>
  <path fill="#E8C230" transform="matrix(1.005 0 0 1.005 36.4 5.5)" d="M3.07957e-07 -2.98023e-07C1.5 -2.98023e-07 3.39734 8.25212 4.69856 10.1487C5.99977 12.0452 12.8575 13.6253 12.8575 15.1253C12.8575 16.6253 6.21756 18.3229 4.69856 20.0499C3.17955 21.7769 1.5995 30.0995 0.099501 30.0995C-1.4005 30.0995 -3.18991 21.8188 -4.6599 20.0499C-6.12988 18.281 -12.758 16.6253 -12.758 15.1253C-12.758 13.6253 -6.13819 11.9107 -4.6599 10.1487C-3.1816 8.38666 -1.5 -2.98023e-07 3.07957e-07 -2.98023e-07Z"></path>
  <path fill="#E8C230" transform="matrix(0.469241 0 0 0.469241 18.3164 31.9557)" d="M3.07957e-07 1.78814e-07C1.5 1.78814e-07 3.39735 8.25212 4.69856 10.1487C5.99977 12.0452 12.8575 13.6253 12.8575 15.1253C12.8575 16.6253 6.21756 18.3229 4.69856 20.0499C3.17955 21.7769 1.5995 30.0995 0.099501 30.0995C-1.4005 30.0995 -3.18991 21.8188 -4.6599 20.0499C-6.12988 18.281 -12.758 16.6253 -12.758 15.1253C-12.758 13.6253 -6.13819 11.9107 -4.6599 10.1487C-3.1816 8.38666 -1.5 1.78814e-07 3.07957e-07 1.78814e-07Z"></path>
  <path fill="#2662D9" transform="matrix(9.57493 0 0 9.57493 127.9 127.901)" d="M0 -10C5.52285 -10 10 -5.52285 10 -9.53674e-07C10 5.52285 5.52285 10 0 10C-5.52285 10 -10 5.52285 -10 -9.53674e-07C-10 -5.52285 -5.52285 -10 0 -10Z"></path>
  <clipPath id="cl_3">
    <path d="M127.9 32.1513C180.781 32.1513 223.649 75.0197 223.649 127.901C223.649 180.781 180.781 223.65 127.9 223.65C75.019 223.65 32.1506 180.781 32.1506 127.901C32.1506 75.0197 75.019 32.1513 127.9 32.1513Z"></path>
  </clipPath>
  <g clip-path="url(#cl_3)">
    <path fill="#2EB88A" transform="matrix(9.57493 0 0 9.57493 187.934 187.934)" d="M5.55995 -1.59389C5.55995 -2.51958 4.80953 -3.27 3.88383 -3.27C3.88383 -3.27 -1.27 -3.27 -1.27 -3.27C-2.37457 -3.27 -3.27 -2.37457 -3.27 -1.27C-3.27 -1.27 -3.27 5.0191 -3.27 5.0191L-0.0212839 4.95577C1.09854 4.93393 1.97834 4.03682 1.97834 2.91678L1.97834 1.87304C1.97834 0.884002 2.78011 0.0822311 3.76914 0.0822311L3.88383 0.0822311C4.80953 0.0822311 5.55995 -0.668192 5.55995 -1.59389L5.55995 -1.59389Z"></path>
    <path fill="#2EB88A" transform="matrix(9.57493 0 0 9.57493 147.863 86.4402)" d="M-7.085 -4.33C-7.085 -4.33 -7.085 -2.67 -7.085 -2.67C-7.085 -1.01315 -5.74185 0.33 -4.085 0.33C-2.98043 0.33 -2.085 1.22543 -2.085 2.33C-2.085 3.43 -1.185 4.33 -0.085 4.33C1.01957 4.33 1.915 3.43457 1.915 2.33C1.915 1.23 2.815 0.33 3.915 0.33C3.915 0.33 7.43362 0.33 7.43362 0.33C8.53819 0.33 9.43362 -0.56543 9.43362 -1.67L9.43362 -6.96326L-7.085 -6.96326L-7.085 -4.33Z"></path>
    <path fill="#2EB88A" transform="matrix(9.57493 0 0 9.57493 75.4766 170.747)" d="M4.475 6.7118C4.475 6.7118 4.475 1.525 4.475 1.525C4.475 0.420429 3.57957 -0.475002 2.475 -0.475002C1.37043 -0.475002 0.474999 -1.37043 0.475 -2.475C0.475 -2.475 0.475 -3.475 0.475 -3.475C0.474999 -4.57957 -0.420431 -5.475 -1.525 -5.475C-1.525 -5.475 -4.57271 -5.475 -4.57271 -5.475C-5.67728 -5.475 -6.57271 -4.57957 -6.57271 -3.475L-6.57271 1.09247C-6.57271 2.05869 -5.78943 2.84197 -4.8232 2.84197L-4.8232 2.84197C-3.85698 2.84197 -3.0737 3.62525 -3.0737 4.59147L-3.0737 4.77689C-3.0737 5.84551 -2.20741 6.7118 -1.13878 6.7118L4.475 6.7118Z"></path>
    <path fill="#020C21" transform="translate(128 176.5)" d="M0 -10C5.52285 -10 10 -5.52285 10 0C10 5.52285 5.52285 10 0 10C-5.52285 10 -10 5.52285 -10 0C-10 -5.52285 -5.52285 -10 0 -10Z"></path>
    <path fill="none" stroke="black" stroke-width="7" stroke-linecap="round" stroke-linejoin="round" transform="matrix(1 0 0 -1 91.75 117.25)" d="M-24.1055 -1.7786C-18.3272 -8.64025 -9.67271 -13 0 -13C9.46395 -13 17.9531 -8.82641 23.7273 -2.21936"></path>
    <path fill="none" stroke="black" stroke-width="7" stroke-linecap="round" stroke-linejoin="round" transform="matrix(1 0 0 -1 165.75 117.25)" d="M-24.1055 -1.7786C-18.3272 -8.64025 -9.67271 -13 0 -13C9.46395 -13 17.9531 -8.82641 23.7273 -2.21936"></path>
  </g>
</svg>