<?xml version="1.0" encoding="utf-8"?>
<svg xmlns="http://www.w3.org/2000/svg" xmlns:xlink="http://www.w3.org/1999/xlink" width="256" height="256">
  <path fill="#E88C30" transform="translate(40.3682 4.12274)" d="M9.83477e-07 -2.60903C4 -2.60903 7.74948 4.88081 10.1423 5.60496C12.5351 6.3291 20.313 0.941799 23.5117 3.34362C26.7103 5.74544 25.8774 14.5494 27.491 16.459C29.1045 18.3685 37.8456 18.474 39.106 22.2702C40.3664 26.0665 34.8753 32.7312 34.8753 35.2312C34.8753 37.7312 41.6051 42.5999 41.2606 46.585C40.9161 50.5701 31.2412 53.6772 29.8931 55.7827C28.545 57.8881 30.6666 66.56 27.491 68.9921C24.3153 71.4242 16.3092 67.9072 14.0569 68.9921C11.8045 70.077 7.99815 78.2403 4 78.3621C0.00185537 78.4839 -4.24683 70.7112 -6.67257 70.1064C-9.0983 69.5016 -17.8268 74.1629 -21.0777 71.8322C-24.3285 69.5016 -22.9662 61.1383 -24.3771 59.0745C-25.788 57.0106 -34.8954 56.2703 -36.0264 52.4335C-37.1573 48.5967 -31.3222 42.1658 -31.5835 39.6795C-31.8448 37.1932 -38.8414 30.5877 -37.9276 26.6934C-37.0139 22.7992 -28.3685 21.6749 -26.8682 19.6751C-25.3679 17.6753 -27.6766 7.86629 -24.3771 5.60496C-21.0777 3.34362 -13.056 7.30172 -10.6613 6.5836C-8.26669 5.86548 -4 -2.60903 9.83477e-07 -2.60903Z"></path>
  <path fill="#E8C230" transform="translate(41.946 41.6149)" d="M0 -27C14.9117 -27 27 -14.9117 27 0C27 14.9117 14.9117 27 0 27C-14.9117 27 -27 14.9117 -27 0C-27 -14.9117 -14.9117 -27 0 -27Z"></path>
  <path fill="#2662D9" transform="matrix(9.57493 0 0 9.57493 127.9 127.901)" d="M0 -10C5.52285 -10 10 -5.52285 10 -9.53674e-07C10 5.52285 5.52285 10 0 10C-5.52285 10 -10 5.52285 -10 -9.53674e-07C-10 -5.52285 -5.52285 -10 0 -10Z"></path>
  <clipPath id="cl_3">
    <path d="M127.9 32.1513C180.781 32.1513 223.649 75.0197 223.649 127.901C223.649 180.781 180.781 223.65 127.9 223.65C75.019 223.65 32.1506 180.781 32.1506 127.901C32.1506 75.0197 75.019 32.1513 127.9 32.1513Z"></path>
  </clipPath>
  <g clip-path="url(#cl_3)">
    <path fill="#2EB88A" transform="matrix(9.57493 0 0 9.57493 187.934 187.934)" d="M5.55995 -1.59389C5.55995 -2.51958 4.80953 -3.27 3.88383 -3.27C3.88383 -3.27 -1.27 -3.27 -1.27 -3.27C-2.37457 -3.27 -3.27 -2.37457 -3.27 -1.27C-3.27 -1.27 -3.27 5.0191 -3.27 5.0191L-0.0212839 4.95577C1.09854 4.93393 1.97834 4.03682 1.97834 2.91678L1.97834 1.87304C1.97834 0.884002 2.78011 0.0822311 3.76914 0.0822311L3.88383 0.0822311C4.80953 0.0822311 5.55995 -0.668192 5.55995 -1.59389L5.55995 -1.59389Z"></path>
    <path fill="#2EB88A" transform="matrix(9.57493 0 0 9.57493 147.863 86.4402)" d="M-7.085 -4.33C-7.085 -4.33 -7.085 -2.67 -7.085 -2.67C-7.085 -1.01315 -5.74185 0.33 -4.085 0.33C-2.98043 0.33 -2.085 1.22543 -2.085 2.33C-2.085 3.43 -1.185 4.33 -0.085 4.33C1.01957 4.33 1.915 3.43457 1.915 2.33C1.915 1.23 2.815 0.33 3.915 0.33C3.915 0.33 7.43362 0.33 7.43362 0.33C8.53819 0.33 9.43362 -0.56543 9.43362 -1.67L9.43362 -6.96326L-7.085 -6.96326L-7.085 -4.33Z"></path>
    <path fill="#2EB88A" transform="matrix(9.57493 0 0 9.57493 75.4766 170.747)" d="M4.475 6.7118C4.475 6.7118 4.475 1.525 4.475 1.525C4.475 0.420429 3.57957 -0.475002 2.475 -0.475002C1.37043 -0.475002 0.474999 -1.37043 0.475 -2.475C0.475 -2.475 0.475 -3.475 0.475 -3.475C0.474999 -4.57957 -0.420431 -5.475 -1.525 -5.475C-1.525 -5.475 -4.57271 -5.475 -4.57271 -5.475C-5.67728 -5.475 -6.57271 -4.57957 -6.57271 -3.475L-6.57271 1.09247C-6.57271 2.05869 -5.78943 2.84197 -4.8232 2.84197L-4.8232 2.84197C-3.85698 2.84197 -3.0737 3.62525 -3.0737 4.59147L-3.0737 4.77689C-3.0737 5.84551 -2.20741 6.7118 -1.13878 6.7118L4.475 6.7118Z"></path>
    <path fill="#020C21" transform="translate(68.5 147)" d="M-3.29812e-06 -3.77496e-06C29.7797 -3.77496e-06 90.4561 -1.26918e-06 119.119 -3.77496e-06C119.119 17.1394 102.36 49.3081 59.3492 49.3081C16.3388 49.3082 -4.04731e-06 17.1394 -3.29812e-06 -3.77496e-06Z"></path>
  </g>
  <clipPath id="cl_7">
    <path d="M68.5 147C98.2797 147 158.956 147 187.619 147C187.619 164.139 170.86 196.308 127.849 196.308C84.8388 196.308 68.5 164.139 68.5 147Z"></path>
  </clipPath>
  <g clip-path="url(#cl_7)">
    <clipPath id="cl_8">
      <path d="M127.9 32.1513C180.781 32.1513 223.649 75.0197 223.649 127.901C223.649 180.781 180.781 223.65 127.9 223.65C75.019 223.65 32.1506 180.781 32.1506 127.901C32.1506 75.0197 75.019 32.1513 127.9 32.1513Z"></path>
    </clipPath>
    <g clip-path="url(#cl_8)">
      <path fill="white" transform="translate(79.5 147)" d="M0 0C-4.20694e-07 9.62436 5.65074 9.62436 5.65074 9.62436L94.035 9.62436C94.035 9.62436 99.6504 9.62436 99.6504 0C74.7378 -2.17793e-06 22.9847 0 0 0Z"></path>
    </g>
  </g>
  <clipPath id="cl_a">
    <path d="M91.5 118.5C74.103 118.5 60 132.603 60 150C60 167.397 74.103 181.5 91.5 181.5C108.897 181.5 123 167.397 123 150C123 132.603 108.897 118.5 91.5 118.5ZM55 73.8336L128 73.8336L128 185L55 185L55 73.8336Z"></path>
  </clipPath>
  <g clip-path="url(#cl_a)">
    <clipPath id="cl_b">
      <path d="M127.9 32.1513C180.781 32.1513 223.649 75.0197 223.649 127.901C223.649 180.781 180.781 223.65 127.9 223.65C75.019 223.65 32.1506 180.781 32.1506 127.901C32.1506 75.0197 75.019 32.1513 127.9 32.1513Z"></path>
    </clipPath>
    <g clip-path="url(#cl_b)">
      <path fill="white" transform="translate(91 104.5)" d="M0.5 -27C15.1355 -27 27 -15.1355 27 -0.5C27 14.1355 15.1355 26 0.5 26C-14.1355 26 -26 14.1355 -26 -0.5C-26 -15.1355 -14.1355 -27 0.5 -27Z"></path>
      <path transform="translate(94 102.5)" d="M0 -14C8.00813 -14 14.5 -7.73199 14.5 0C14.5 7.73199 8.00813 14 0 14C-8.00813 14 -14.5 7.73199 -14.5 0C-14.5 -7.73199 -8.00813 -14 0 -14Z"></path>
    </g>
  </g>
  <clipPath id="cl_f">
    <path d="M167.5 118.5C150.103 118.5 136 132.603 136 150C136 167.397 150.103 181.5 167.5 181.5C184.897 181.5 199 167.397 199 150C199 132.603 184.897 118.5 167.5 118.5ZM131 73.8336L204 73.8336L204 185L131 185L131 73.8336Z"></path>
  </clipPath>
  <g clip-path="url(#cl_f)">
    <clipPath id="cl_10">
      <path d="M127.9 32.1513C180.781 32.1513 223.649 75.0197 223.649 127.901C223.649 180.781 180.781 223.65 127.9 223.65C75.019 223.65 32.1506 180.781 32.1506 127.901C32.1506 75.0197 75.019 32.1513 127.9 32.1513Z"></path>
    </clipPath>
    <g clip-path="url(#cl_10)">
      <path fill="white" transform="translate(165 104.5)" d="M0.5 -27C15.1355 -27 27 -15.1355 27 -0.5C27 14.1355 15.1355 26 0.5 26C-14.1355 26 -26 14.1355 -26 -0.5C-26 -15.1355 -14.1355 -27 0.5 -27Z"></path>
      <path transform="translate(163 102.5)" d="M0 -14C8.00813 -14 14.5 -7.73199 14.5 0C14.5 7.73199 8.00813 14 0 14C-8.00813 14 -14.5 7.73199 -14.5 0C-14.5 -7.73199 -8.00813 -14 0 -14Z"></path>
    </g>
  </g>
</svg>